<mxfile host="app.diagrams.net" modified="2023-09-18T18:51:37.210Z" agent="Mozilla/5.0 (Windows NT 10.0; Win64; x64) AppleWebKit/537.36 (KHTML, like Gecko) Chrome/116.0.0.0 Safari/537.36" etag="n58L0VduPy_kiBNyqgax" version="21.7.5" type="device">
  <diagram name="Página-1" id="hgzGh2p1zT_o52CGEpDD">
    <mxGraphModel dx="3020" dy="752" grid="1" gridSize="10" guides="1" tooltips="1" connect="1" arrows="1" fold="1" page="1" pageScale="1" pageWidth="827" pageHeight="1169" math="0" shadow="0">
      <root>
        <mxCell id="0" />
        <mxCell id="1" parent="0" />
        <mxCell id="7J7cV7tXam3rRcAmNrk9-8" style="edgeStyle=orthogonalEdgeStyle;rounded=0;orthogonalLoop=1;jettySize=auto;html=1;" edge="1" parent="1" source="7J7cV7tXam3rRcAmNrk9-1" target="7J7cV7tXam3rRcAmNrk9-3">
          <mxGeometry relative="1" as="geometry" />
        </mxCell>
        <mxCell id="7J7cV7tXam3rRcAmNrk9-1" value="Inicio" style="rounded=1;whiteSpace=wrap;html=1;" vertex="1" parent="1">
          <mxGeometry x="-1600" y="100" width="120" height="60" as="geometry" />
        </mxCell>
        <mxCell id="7J7cV7tXam3rRcAmNrk9-2" value="Fim" style="rounded=1;whiteSpace=wrap;html=1;" vertex="1" parent="1">
          <mxGeometry x="-1600" y="490" width="120" height="60" as="geometry" />
        </mxCell>
        <mxCell id="7J7cV7tXam3rRcAmNrk9-9" style="edgeStyle=orthogonalEdgeStyle;rounded=0;orthogonalLoop=1;jettySize=auto;html=1;" edge="1" parent="1" source="7J7cV7tXam3rRcAmNrk9-3" target="7J7cV7tXam3rRcAmNrk9-4">
          <mxGeometry relative="1" as="geometry" />
        </mxCell>
        <mxCell id="7J7cV7tXam3rRcAmNrk9-3" value="A e B" style="shape=manualInput;whiteSpace=wrap;html=1;" vertex="1" parent="1">
          <mxGeometry x="-1575" y="200" width="75" height="60" as="geometry" />
        </mxCell>
        <mxCell id="7J7cV7tXam3rRcAmNrk9-10" style="edgeStyle=orthogonalEdgeStyle;rounded=0;orthogonalLoop=1;jettySize=auto;html=1;" edge="1" parent="1" source="7J7cV7tXam3rRcAmNrk9-4" target="7J7cV7tXam3rRcAmNrk9-5">
          <mxGeometry relative="1" as="geometry" />
        </mxCell>
        <mxCell id="7J7cV7tXam3rRcAmNrk9-4" value="Aux= a&lt;br&gt;A = b&lt;br&gt;B = Aux" style="rounded=0;whiteSpace=wrap;html=1;" vertex="1" parent="1">
          <mxGeometry x="-1600" y="320" width="120" height="60" as="geometry" />
        </mxCell>
        <mxCell id="7J7cV7tXam3rRcAmNrk9-11" style="edgeStyle=orthogonalEdgeStyle;rounded=0;orthogonalLoop=1;jettySize=auto;html=1;" edge="1" parent="1" source="7J7cV7tXam3rRcAmNrk9-5" target="7J7cV7tXam3rRcAmNrk9-2">
          <mxGeometry relative="1" as="geometry" />
        </mxCell>
        <mxCell id="7J7cV7tXam3rRcAmNrk9-5" value="A e B" style="shape=display;whiteSpace=wrap;html=1;" vertex="1" parent="1">
          <mxGeometry x="-1580" y="420" width="80" height="40" as="geometry" />
        </mxCell>
        <mxCell id="7J7cV7tXam3rRcAmNrk9-12" style="edgeStyle=orthogonalEdgeStyle;rounded=0;orthogonalLoop=1;jettySize=auto;html=1;" edge="1" parent="1" source="7J7cV7tXam3rRcAmNrk9-13" target="7J7cV7tXam3rRcAmNrk9-15">
          <mxGeometry relative="1" as="geometry" />
        </mxCell>
        <mxCell id="7J7cV7tXam3rRcAmNrk9-13" value="Inicio" style="rounded=1;whiteSpace=wrap;html=1;" vertex="1" parent="1">
          <mxGeometry x="-1330" y="90" width="120" height="60" as="geometry" />
        </mxCell>
        <mxCell id="7J7cV7tXam3rRcAmNrk9-14" style="edgeStyle=orthogonalEdgeStyle;rounded=0;orthogonalLoop=1;jettySize=auto;html=1;" edge="1" parent="1" source="7J7cV7tXam3rRcAmNrk9-15" target="7J7cV7tXam3rRcAmNrk9-17">
          <mxGeometry relative="1" as="geometry" />
        </mxCell>
        <mxCell id="7J7cV7tXam3rRcAmNrk9-15" value="Numero" style="shape=manualInput;whiteSpace=wrap;html=1;" vertex="1" parent="1">
          <mxGeometry x="-1305" y="190" width="75" height="60" as="geometry" />
        </mxCell>
        <mxCell id="7J7cV7tXam3rRcAmNrk9-16" style="edgeStyle=orthogonalEdgeStyle;rounded=0;orthogonalLoop=1;jettySize=auto;html=1;" edge="1" parent="1" source="7J7cV7tXam3rRcAmNrk9-17" target="7J7cV7tXam3rRcAmNrk9-19">
          <mxGeometry relative="1" as="geometry" />
        </mxCell>
        <mxCell id="7J7cV7tXam3rRcAmNrk9-17" value="Quadrado = Numero * Numero" style="rounded=0;whiteSpace=wrap;html=1;" vertex="1" parent="1">
          <mxGeometry x="-1330" y="310" width="120" height="60" as="geometry" />
        </mxCell>
        <mxCell id="7J7cV7tXam3rRcAmNrk9-18" style="edgeStyle=orthogonalEdgeStyle;rounded=0;orthogonalLoop=1;jettySize=auto;html=1;" edge="1" parent="1" source="7J7cV7tXam3rRcAmNrk9-19">
          <mxGeometry relative="1" as="geometry">
            <mxPoint x="-1270" y="480" as="targetPoint" />
          </mxGeometry>
        </mxCell>
        <mxCell id="7J7cV7tXam3rRcAmNrk9-19" value="Quadrado" style="shape=display;whiteSpace=wrap;html=1;" vertex="1" parent="1">
          <mxGeometry x="-1310" y="410" width="80" height="40" as="geometry" />
        </mxCell>
        <mxCell id="7J7cV7tXam3rRcAmNrk9-31" style="edgeStyle=orthogonalEdgeStyle;rounded=0;orthogonalLoop=1;jettySize=auto;html=1;" edge="1" parent="1" source="7J7cV7tXam3rRcAmNrk9-21" target="7J7cV7tXam3rRcAmNrk9-23">
          <mxGeometry relative="1" as="geometry" />
        </mxCell>
        <mxCell id="7J7cV7tXam3rRcAmNrk9-21" value="Inicio" style="rounded=1;whiteSpace=wrap;html=1;" vertex="1" parent="1">
          <mxGeometry x="-1060" y="90" width="120" height="60" as="geometry" />
        </mxCell>
        <mxCell id="7J7cV7tXam3rRcAmNrk9-22" style="edgeStyle=orthogonalEdgeStyle;rounded=0;orthogonalLoop=1;jettySize=auto;html=1;" edge="1" parent="1" source="7J7cV7tXam3rRcAmNrk9-23" target="7J7cV7tXam3rRcAmNrk9-25">
          <mxGeometry relative="1" as="geometry" />
        </mxCell>
        <mxCell id="7J7cV7tXam3rRcAmNrk9-23" value="tamanho" style="shape=manualInput;whiteSpace=wrap;html=1;" vertex="1" parent="1">
          <mxGeometry x="-1035" y="190" width="75" height="60" as="geometry" />
        </mxCell>
        <mxCell id="7J7cV7tXam3rRcAmNrk9-24" style="edgeStyle=orthogonalEdgeStyle;rounded=0;orthogonalLoop=1;jettySize=auto;html=1;" edge="1" parent="1" source="7J7cV7tXam3rRcAmNrk9-25" target="7J7cV7tXam3rRcAmNrk9-27">
          <mxGeometry relative="1" as="geometry" />
        </mxCell>
        <mxCell id="7J7cV7tXam3rRcAmNrk9-25" value="Pé = Tamanho * 0.3048" style="rounded=0;whiteSpace=wrap;html=1;" vertex="1" parent="1">
          <mxGeometry x="-1060" y="310" width="120" height="60" as="geometry" />
        </mxCell>
        <mxCell id="7J7cV7tXam3rRcAmNrk9-26" style="edgeStyle=orthogonalEdgeStyle;rounded=0;orthogonalLoop=1;jettySize=auto;html=1;" edge="1" parent="1" source="7J7cV7tXam3rRcAmNrk9-27">
          <mxGeometry relative="1" as="geometry">
            <mxPoint x="-1000" y="480" as="targetPoint" />
          </mxGeometry>
        </mxCell>
        <mxCell id="7J7cV7tXam3rRcAmNrk9-30" style="edgeStyle=orthogonalEdgeStyle;rounded=0;orthogonalLoop=1;jettySize=auto;html=1;" edge="1" parent="1" source="7J7cV7tXam3rRcAmNrk9-27" target="7J7cV7tXam3rRcAmNrk9-29">
          <mxGeometry relative="1" as="geometry" />
        </mxCell>
        <mxCell id="7J7cV7tXam3rRcAmNrk9-27" value="pé" style="shape=display;whiteSpace=wrap;html=1;" vertex="1" parent="1">
          <mxGeometry x="-1040" y="410" width="80" height="40" as="geometry" />
        </mxCell>
        <mxCell id="7J7cV7tXam3rRcAmNrk9-28" value="Fim" style="rounded=1;whiteSpace=wrap;html=1;" vertex="1" parent="1">
          <mxGeometry x="-1340" y="480" width="120" height="60" as="geometry" />
        </mxCell>
        <mxCell id="7J7cV7tXam3rRcAmNrk9-29" value="Fim" style="rounded=1;whiteSpace=wrap;html=1;" vertex="1" parent="1">
          <mxGeometry x="-1060" y="490" width="120" height="60" as="geometry" />
        </mxCell>
        <mxCell id="7J7cV7tXam3rRcAmNrk9-32" style="edgeStyle=orthogonalEdgeStyle;rounded=0;orthogonalLoop=1;jettySize=auto;html=1;" edge="1" parent="1" target="7J7cV7tXam3rRcAmNrk9-34">
          <mxGeometry relative="1" as="geometry">
            <mxPoint x="-1520" y="650" as="sourcePoint" />
          </mxGeometry>
        </mxCell>
        <mxCell id="7J7cV7tXam3rRcAmNrk9-33" style="edgeStyle=orthogonalEdgeStyle;rounded=0;orthogonalLoop=1;jettySize=auto;html=1;" edge="1" parent="1" source="7J7cV7tXam3rRcAmNrk9-34">
          <mxGeometry relative="1" as="geometry">
            <mxPoint x="-1520" y="810" as="targetPoint" />
          </mxGeometry>
        </mxCell>
        <mxCell id="7J7cV7tXam3rRcAmNrk9-34" value="valor" style="shape=manualInput;whiteSpace=wrap;html=1;" vertex="1" parent="1">
          <mxGeometry x="-1555" y="690" width="75" height="60" as="geometry" />
        </mxCell>
        <mxCell id="7J7cV7tXam3rRcAmNrk9-35" style="edgeStyle=orthogonalEdgeStyle;rounded=0;orthogonalLoop=1;jettySize=auto;html=1;" edge="1" parent="1" target="7J7cV7tXam3rRcAmNrk9-38">
          <mxGeometry relative="1" as="geometry">
            <mxPoint x="-1520" y="870" as="sourcePoint" />
          </mxGeometry>
        </mxCell>
        <mxCell id="7J7cV7tXam3rRcAmNrk9-36" style="edgeStyle=orthogonalEdgeStyle;rounded=0;orthogonalLoop=1;jettySize=auto;html=1;" edge="1" parent="1" source="7J7cV7tXam3rRcAmNrk9-38">
          <mxGeometry relative="1" as="geometry">
            <mxPoint x="-1520" y="980" as="targetPoint" />
          </mxGeometry>
        </mxCell>
        <mxCell id="7J7cV7tXam3rRcAmNrk9-37" style="edgeStyle=orthogonalEdgeStyle;rounded=0;orthogonalLoop=1;jettySize=auto;html=1;" edge="1" parent="1" source="7J7cV7tXam3rRcAmNrk9-38">
          <mxGeometry relative="1" as="geometry">
            <mxPoint x="-1520" y="990" as="targetPoint" />
          </mxGeometry>
        </mxCell>
        <mxCell id="7J7cV7tXam3rRcAmNrk9-38" value="sucessor&lt;br&gt;antecessor" style="shape=display;whiteSpace=wrap;html=1;" vertex="1" parent="1">
          <mxGeometry x="-1560" y="910" width="80" height="40" as="geometry" />
        </mxCell>
        <mxCell id="7J7cV7tXam3rRcAmNrk9-39" value="sucessor = valor + 1&lt;br&gt;antecessor = valor -1" style="rounded=0;whiteSpace=wrap;html=1;" vertex="1" parent="1">
          <mxGeometry x="-1575" y="800" width="120" height="60" as="geometry" />
        </mxCell>
        <mxCell id="7J7cV7tXam3rRcAmNrk9-40" value="Fim" style="rounded=1;whiteSpace=wrap;html=1;" vertex="1" parent="1">
          <mxGeometry x="-1580" y="980" width="120" height="60" as="geometry" />
        </mxCell>
        <mxCell id="7J7cV7tXam3rRcAmNrk9-41" value="Inicio" style="rounded=1;whiteSpace=wrap;html=1;" vertex="1" parent="1">
          <mxGeometry x="-1575" y="610" width="120" height="60" as="geometry" />
        </mxCell>
      </root>
    </mxGraphModel>
  </diagram>
</mxfile>
